{
  "asset": { "version": "2.0" },
  "buffers": [
    {
      "uri": "data:application/octet-stream;base64,",
      "byteLength": 36
    }
  ],
  "bufferViews": [
    { "buffer": 0, "byteOffset": 0, "byteLength": 36 }
  ],
  "accessors": [
    { "bufferView": 0, "byteOffset": 0, "componentType": 5126, "count": 3, "type": "VEC3", "max": [1,0,1], "min": [0,0,0] }
  ],
  "meshes": [
    {
      "name": "Triangle",
      "primitives": [
        { "attributes": { "POSITION": 0 } }
      ]
    }
  ],
  "nodes": [{ "mesh": 0, "name": "TriangleNode" }],
  "scenes": [{ "nodes": [0] }],
  "scene": 0
}

